<svg width="27" height="34" viewBox="0 0 27 34" fill="none" xmlns="http://www.w3.org/2000/svg">
<path d="M15.6089 29.9452L15.8124 29.879L15.816 29.665L16.2296 5.28772C16.281 2.25774 13.5526 -0.00786495 10.7867 0.901608L4.08448 3.10544C2.2321 3.71453 0.976606 5.53126 0.950374 7.58177L0.700514 27.1119C0.652066 30.8989 4.05613 33.7068 7.49708 32.5865L15.6089 29.9452ZM4.99503 6.21979L11.6973 4.01597L11.6036 3.73098L11.6973 4.01597C12.4033 3.78382 13.1713 4.3546 13.1565 5.229L12.7794 27.4557L6.59467 29.4695C5.20588 29.9217 3.75279 28.7965 3.77378 27.1562L4.02364 7.62606C4.0321 6.96443 4.43589 6.40364 4.99503 6.21979Z" fill="#9333EA" stroke="#9333EA" stroke-width="0.6"/>
<path d="M12.6629 7.97072L12.4716 8.04287L12.4688 8.24728L12.1599 30.6287L12.1541 31.0446L12.5506 30.9188L22.1771 27.864C24.409 27.1558 25.9278 24.9706 25.9467 22.5014L26.0416 10.0672C26.0678 6.61608 22.8863 4.11476 19.7861 5.28405L12.6629 7.97072ZM21.2958 24.7403L15.2887 26.6464L15.5135 10.3563L20.8163 8.35618C21.8447 7.96832 22.9777 8.78626 22.9681 10.0408L22.8732 22.475C22.8651 23.5374 22.2131 24.4492 21.2958 24.7403Z" fill="#9333EA" stroke="#9333EA" stroke-width="0.6"/>
<path d="M4.05581 7.17279L3.78402 7.12733L4.05581 7.17279C4.12564 6.75531 4.40206 6.42832 4.75542 6.3085L11.3631 4.06805C12.2118 3.78028 13.1316 4.45514 13.1316 5.49138V6.78486L6.38274 9.34106C5.13986 9.81178 3.80526 8.6706 4.05581 7.17279ZM16.0114 9.15643L16.2051 9.08305V8.87588V5.49138C16.2051 2.31059 13.3172 -0.0177604 10.4267 0.962301L10.5231 1.24641L10.4267 0.962302L3.81908 3.20276C2.36306 3.69646 1.29569 5.01175 1.02957 6.60265C0.381344 10.4778 3.87233 13.7542 7.41682 12.4117L16.0114 9.15643Z" fill="#9333EA" stroke="#9333EA" stroke-width="0.6"/>
</svg>
