<svg width="163" height="34" viewBox="0 0 163 34" fill="none" xmlns="http://www.w3.org/2000/svg">
<path d="M33.5252 25.9165L41.0132 9.1165H44.8532L52.3652 25.9165H48.2852L42.1412 11.0845H43.6772L37.5092 25.9165H33.5252ZM37.2692 22.3165L38.3012 19.3645H46.9412L47.9972 22.3165H37.2692ZM61.9138 26.2045C60.6178 26.2045 59.4098 25.9965 58.2898 25.5805C57.1858 25.1485 56.2258 24.5405 55.4098 23.7565C54.5938 22.9725 53.9538 22.0525 53.4898 20.9965C53.0418 19.9405 52.8178 18.7805 52.8178 17.5165C52.8178 16.2525 53.0418 15.0925 53.4898 14.0365C53.9538 12.9805 54.5938 12.0605 55.4098 11.2765C56.2418 10.4925 57.2098 9.8925 58.3138 9.4765C59.4178 9.0445 60.6258 8.8285 61.9378 8.8285C63.3938 8.8285 64.7058 9.0845 65.8738 9.5965C67.0578 10.0925 68.0498 10.8285 68.8498 11.8045L66.3538 14.1085C65.7778 13.4525 65.1378 12.9645 64.4338 12.6445C63.7298 12.3085 62.9618 12.1405 62.1298 12.1405C61.3458 12.1405 60.6258 12.2685 59.9698 12.5245C59.3138 12.7805 58.7458 13.1485 58.2658 13.6285C57.7858 14.1085 57.4098 14.6765 57.1378 15.3325C56.8818 15.9885 56.7538 16.7165 56.7538 17.5165C56.7538 18.3165 56.8818 19.0445 57.1378 19.7005C57.4098 20.3565 57.7858 20.9245 58.2658 21.4045C58.7458 21.8845 59.3138 22.2525 59.9698 22.5085C60.6258 22.7645 61.3458 22.8925 62.1298 22.8925C62.9618 22.8925 63.7298 22.7325 64.4338 22.4125C65.1378 22.0765 65.7778 21.5725 66.3538 20.9005L68.8498 23.2045C68.0498 24.1805 67.0578 24.9245 65.8738 25.4365C64.7058 25.9485 63.3858 26.2045 61.9138 26.2045ZM68.9627 25.9165L76.4507 9.1165H80.2907L87.8027 25.9165H83.7227L77.5787 11.0845H79.1147L72.9467 25.9165H68.9627ZM72.7067 22.3165L73.7387 19.3645H82.3787L83.4347 22.3165H72.7067ZM89.5457 25.9165V9.1165H97.1777C99.0017 9.1165 100.61 9.4685 102.002 10.1725C103.394 10.8605 104.482 11.8285 105.266 13.0765C106.05 14.3245 106.442 15.8045 106.442 17.5165C106.442 19.2125 106.05 20.6925 105.266 21.9565C104.482 23.2045 103.394 24.1805 102.002 24.8845C100.61 25.5725 99.0017 25.9165 97.1777 25.9165H89.5457ZM93.4337 22.7245H96.9857C98.1057 22.7245 99.0737 22.5165 99.8897 22.1005C100.722 21.6685 101.362 21.0605 101.81 20.2765C102.274 19.4925 102.506 18.5725 102.506 17.5165C102.506 16.4445 102.274 15.5245 101.81 14.7565C101.362 13.9725 100.722 13.3725 99.8897 12.9565C99.0737 12.5245 98.1057 12.3085 96.9857 12.3085H93.4337V22.7245ZM112.95 15.8845H121.038V18.9085H112.95V15.8845ZM113.238 22.7965H122.382V25.9165H109.374V9.1165H122.07V12.2365H113.238V22.7965ZM125.475 25.9165V9.1165H128.691L135.843 20.9725H134.139L141.171 9.1165H144.363L144.411 25.9165H140.763L140.739 14.7085H141.411L135.795 24.1405H134.043L128.307 14.7085H129.123V25.9165H125.475ZM152.573 25.9165V19.0525L153.461 21.4045L146.069 9.1165H150.197L155.861 18.5485H153.485L159.173 9.1165H162.989L155.597 21.4045L156.461 19.0525V25.9165H152.573Z" fill="white"/>
<path d="M15.6089 29.9452L15.8124 29.879L15.816 29.665L16.2296 5.28772C16.281 2.25774 13.5526 -0.00786495 10.7867 0.901608L4.08448 3.10544C2.2321 3.71453 0.976606 5.53126 0.950374 7.58177L0.700514 27.1119C0.652066 30.8989 4.05613 33.7068 7.49708 32.5865L15.6089 29.9452ZM4.99503 6.21979L11.6973 4.01597L11.6036 3.73098L11.6973 4.01597C12.4033 3.78382 13.1713 4.3546 13.1565 5.229L12.7794 27.4557L6.59467 29.4695C5.20588 29.9217 3.75279 28.7965 3.77378 27.1562L4.02364 7.62606C4.0321 6.96443 4.43589 6.40364 4.99503 6.21979Z" fill="#9333EA" stroke="#9333EA" stroke-width="0.6"/>
<path d="M12.6629 7.97072L12.4716 8.04287L12.4688 8.24728L12.1599 30.6287L12.1541 31.0446L12.5506 30.9188L22.1771 27.864C24.409 27.1558 25.9278 24.9706 25.9467 22.5014L26.0416 10.0672C26.0678 6.61608 22.8863 4.11476 19.7861 5.28405L12.6629 7.97072ZM21.2958 24.7403L15.2887 26.6464L15.5135 10.3563L20.8163 8.35618C21.8447 7.96832 22.9777 8.78626 22.9681 10.0408L22.8732 22.475C22.8651 23.5374 22.2131 24.4492 21.2958 24.7403Z" fill="#9333EA" stroke="#9333EA" stroke-width="0.6"/>
<path d="M4.05581 7.17279L3.78402 7.12733L4.05581 7.17279C4.12564 6.75531 4.40206 6.42832 4.75542 6.3085L11.3631 4.06805C12.2118 3.78028 13.1316 4.45514 13.1316 5.49138V6.78486L6.38274 9.34106C5.13986 9.81178 3.80526 8.6706 4.05581 7.17279ZM16.0114 9.15643L16.2051 9.08305V8.87588V5.49138C16.2051 2.31059 13.3172 -0.0177604 10.4267 0.962301L10.5231 1.24641L10.4267 0.962302L3.81908 3.20276C2.36306 3.69646 1.29569 5.01175 1.02957 6.60265C0.381344 10.4778 3.87233 13.7542 7.41682 12.4117L16.0114 9.15643Z" fill="#9333EA" stroke="#9333EA" stroke-width="0.6"/>
</svg>
