<svg width="97" height="97" viewBox="0 0 97 97" fill="none" xmlns="http://www.w3.org/2000/svg">
<circle cx="48.4605" cy="48.4605" r="48.4605" fill="url(#paint0_linear_32_3)"/>
<g clip-path="url(#clip0_32_3)">
<path d="M27.5017 61.6664C29.8822 65.797 34.0745 67.7013 38.8529 68.1014C41.8096 72.1409 45.6811 74.7172 49.9278 74.7172C54.1728 74.7172 58.043 72.1428 60.9993 68.1061C65.7811 67.7057 69.9732 65.7972 72.3539 61.6664C74.7153 57.5796 74.2958 53.0333 72.2924 48.7168C74.2947 44.4064 74.7196 39.8621 72.3539 35.7679C69.9774 31.6443 65.7863 29.7378 61.0051 29.3363C58.048 25.2947 54.1756 22.7172 49.9278 22.7172C45.6799 22.7172 41.8078 25.2947 38.8507 29.3361C34.0691 29.7376 29.8782 31.6443 27.5017 35.7679C25.1402 39.8547 25.5598 44.4009 27.5632 48.7174C25.561 53.0277 25.1361 57.5722 27.5017 61.6664V61.6664ZM40.421 32.2874C41.8073 32.2645 43.2446 32.3834 44.6944 32.6056C43.6031 33.1028 42.5417 33.6312 41.549 34.2044C40.5131 34.8025 39.4811 35.4872 38.463 36.2197C39.0266 34.7879 39.6842 33.4718 40.421 32.2874V32.2874ZM61.3925 36.2189C60.3759 35.4878 59.3443 34.8033 58.3067 34.2043C57.3161 33.6326 56.2574 33.1056 55.1689 32.6095C56.6154 32.3877 58.0511 32.2677 59.4361 32.2896C60.1721 33.4734 60.8291 34.7885 61.3925 36.2189ZM59.4415 65.1365C58.0588 65.1584 56.6261 65.0381 55.1833 64.8183C56.2671 64.3236 57.3214 63.7986 58.3067 63.2299C59.3425 62.6318 60.3746 61.9471 61.3927 61.2146C60.8306 62.6422 60.1754 63.9549 59.4415 65.1365ZM66.5164 45.2386C67.4135 46.3626 68.2202 47.5265 68.8848 48.7174C68.2202 49.9079 67.4133 51.0717 66.5164 52.1953C66.6162 51.0546 66.6856 49.8996 66.6856 48.7172C66.6856 47.5348 66.6162 46.3796 66.5164 45.2386V45.2386ZM56.7833 36.8436C58.8142 38.0159 60.9347 39.573 62.8987 41.3721C63.3707 43.6809 63.6387 46.1455 63.6387 48.7172C63.6387 51.2883 63.3709 53.7524 62.8991 56.0608C60.9335 57.8617 58.8118 59.4198 56.7833 60.5908C54.7852 61.7435 52.4215 62.7863 49.9273 63.5831C47.4316 62.7858 45.0678 61.7426 43.0723 60.5908C41.0414 59.4185 38.9208 57.8614 36.9568 56.0624C36.4849 53.7535 36.2168 51.2889 36.2168 48.7173C36.2168 46.1461 36.4847 43.682 36.9564 41.3736C38.9221 39.5727 41.0438 38.0145 43.0723 36.8436C45.0787 35.6854 47.4429 34.6415 49.933 33.8444C52.4074 34.6388 54.7653 35.6789 56.7833 36.8436V36.8436ZM33.3392 52.1957C32.4421 51.0717 31.6352 49.9076 30.9707 48.7168C31.6356 47.5262 32.4423 46.3626 33.3392 45.239C33.2393 46.3797 33.17 47.5348 33.17 48.7172C33.17 49.8996 33.2393 51.0547 33.3392 52.1957ZM41.5489 63.23C42.5348 63.7993 43.5886 64.3239 44.6711 64.8186C43.2286 65.0384 41.7959 65.1582 40.4138 65.1362C39.68 63.9547 39.0251 62.6424 38.4632 61.2154C39.4796 61.9465 40.5114 62.631 41.5489 63.23V63.23ZM49.9278 71.6703C47.2772 71.6703 44.8085 70.288 42.7089 68.1088C45.0966 67.9427 47.5409 67.4867 49.9215 66.7886C52.306 67.4895 54.7531 67.9464 57.1426 68.1127C55.0437 70.2894 52.5767 71.6703 49.9278 71.6703V71.6703ZM69.7176 60.1429C68.2714 62.6496 65.8977 64.0815 63.0743 64.726C64.1485 62.6236 65.0089 60.2588 65.6236 57.7049C67.4178 55.9872 69.0321 54.094 70.3651 52.1049C71.2163 54.8704 71.1618 57.6398 69.7176 60.1429ZM69.7176 37.2914C71.1624 39.7952 71.2171 42.5641 70.3661 45.3286C69.0342 43.3395 67.4199 41.4447 65.6224 39.7245C65.0073 37.1699 64.1462 34.804 63.071 32.7013C65.8956 33.3476 68.2699 34.7823 69.7176 37.2914ZM49.9278 25.764C52.5793 25.764 55.0488 27.1471 57.1489 29.3278C54.759 29.4929 52.3117 29.9481 49.9274 30.6474C47.5429 29.9479 45.096 29.4929 42.7067 29.3278C44.8068 27.1471 47.2763 25.764 49.9278 25.764ZM30.1379 37.2914C31.5833 34.7866 33.9571 33.3508 36.7844 32.7018C35.7085 34.8058 34.8472 37.173 34.232 39.7295C32.4378 41.4472 30.8235 43.3404 29.4905 45.3295C28.6393 42.5639 28.6938 39.7945 30.1379 37.2914V37.2914ZM34.2331 57.7097C34.8476 60.2614 35.7076 62.6246 36.781 64.7253C33.9575 64.0808 31.584 62.649 30.1379 60.1429C28.6932 57.6391 28.6387 54.8702 29.4897 52.1057C30.8215 54.0948 32.4356 55.9893 34.2331 57.7097Z" fill="url(#paint1_linear_32_3)"/>
<path d="M49.9277 44.1469C54.1346 44.1469 57.5449 42.7827 57.5449 41.1C57.5449 39.4172 54.1346 38.0531 49.9277 38.0531C45.7209 38.0531 42.3105 39.4172 42.3105 41.1C42.3105 42.7827 45.7209 44.1469 49.9277 44.1469Z" fill="url(#paint2_linear_32_3)"/>
<path d="M49.9277 47.1937C45.723 47.1937 42.3105 45.8226 42.3105 44.1469V48.7172C42.3105 50.3929 45.723 51.764 49.9277 51.764C54.1324 51.764 57.5449 50.3929 57.5449 48.7172V44.1469C57.5449 45.8226 54.1324 47.1937 49.9277 47.1937Z" fill="url(#paint3_linear_32_3)"/>
<path d="M49.9277 54.8109C45.723 54.8109 42.3105 53.4398 42.3105 51.764V56.3344C42.3105 58.0101 45.723 59.3812 49.9277 59.3812C54.1324 59.3812 57.5449 58.0101 57.5449 56.3344V51.764C57.5449 53.4398 54.1324 54.8109 49.9277 54.8109Z" fill="url(#paint4_linear_32_3)"/>
</g>
<defs>
<linearGradient id="paint0_linear_32_3" x1="-5.19627e-07" y1="45.2298" x2="94.5981" y2="45.652" gradientUnits="userSpaceOnUse">
<stop stop-color="white"/>
<stop offset="0.930208" stop-color="white"/>
</linearGradient>
<linearGradient id="paint1_linear_32_3" x1="18" y1="56" x2="190" y2="49.5" gradientUnits="userSpaceOnUse">
<stop stop-color="#FF7070"/>
<stop offset="1" stop-color="white" stop-opacity="0.65"/>
</linearGradient>
<linearGradient id="paint2_linear_32_3" x1="39.8106" y1="41.9534" x2="93.8271" y2="36.4337" gradientUnits="userSpaceOnUse">
<stop stop-color="#FF7070"/>
<stop offset="1" stop-color="white" stop-opacity="0.65"/>
</linearGradient>
<linearGradient id="paint3_linear_32_3" x1="39.8106" y1="49.0223" x2="94.0288" y2="44.59" gradientUnits="userSpaceOnUse">
<stop stop-color="#FF7070"/>
<stop offset="1" stop-color="white" stop-opacity="0.65"/>
</linearGradient>
<linearGradient id="paint4_linear_32_3" x1="39.8106" y1="56.6395" x2="94.0288" y2="52.2072" gradientUnits="userSpaceOnUse">
<stop stop-color="#FF7070"/>
<stop offset="1" stop-color="white" stop-opacity="0.65"/>
</linearGradient>
<clipPath id="clip0_32_3">
<rect width="52" height="52" fill="white" transform="translate(23.9277 22.7172)"/>
</clipPath>
</defs>
</svg>
